<svg width="568" height="568" viewBox="0 0 568 568" fill="none" xmlns="http://www.w3.org/2000/svg">
<path d="M123.121 67.6639C188.241 116.552 258.281 215.681 284 268.873C309.719 215.681 379.759 116.552 444.879 67.6639C491.866 32.3879 568 5.09395 568 91.9459C568 109.292 558.055 237.659 552.222 258.501C531.947 330.954 458.067 349.434 392.347 338.249C507.222 357.8 536.444 422.56 473.333 487.32C353.473 610.312 301.061 456.461 287.631 417.039C285.169 409.812 284.017 406.431 284 409.306C283.983 406.431 282.831 409.812 280.369 417.039C266.939 456.461 214.527 610.312 94.667 487.32C31.556 422.56 60.778 357.8 175.653 338.249C109.933 349.434 36.053 330.954 15.778 258.501C9.945 237.659 0 109.292 0 91.9459C0 5.09395 76.134 32.3879 123.121 67.6639Z" fill="#1185FE"/>
</svg>
